<svg version="1.2" xmlns="http://www.w3.org/2000/svg" viewBox="0 0 37 40" width="37" height="40">
	<title>logo-svg</title>
	<style>
		.s0 { fill: #1677ff } 
	</style>
	<path class="s0" d="m21.5 17v21.4c0 0.6 0.8 0.9 1.3 0.5 9.2-8.1 11.2-10.6 12.1-12.4 0.8-1.4 1.1-3 1.1-4.6v-12.6c0-1.7-0.2-3.5-1.2-5-1.7-2.4-4-3.6-5.7-4.1-0.6-0.2-1.2-0.2-1.9-0.2h-19c-0.9 0-1.8 0-2.6 0.4-2.3 0.8-3.8 2.7-4.8 4.4-0.6 1.2-0.8 2.6-0.8 3.9v13.1c0 2 0.4 4.1 1.7 5.6 0.9 0.9 1.8 1.7 2.7 2.3 1.5 1.1 3.4 1.5 5.3 1.5h4.4c0.4 0 0.8-0.4 0.8-0.8v-13.4c0-0.4-0.4-0.7-0.8-0.7h-6.5c-0.4 0-0.7-0.4-0.7-0.8v-5.1c0-0.5 0.3-0.8 0.7-0.8h21c0.4 0 0.8 0.3 0.8 0.8v5.1c0 0.4-0.4 0.8-0.8 0.8h-6.3c-0.4 0-0.8 0.3-0.8 0.7z"/>
</svg>